<svg width="25" height="25" viewBox="0 0 25 25" fill="none" xmlns="http://www.w3.org/2000/svg">
<path d="M11.0039 6.29102C10.9896 7.13472 11.662 7.83022 12.5057 7.84446C13.3494 7.85871 14.0449 7.1863 14.0592 6.3426C14.0734 5.4989 13.401 4.8034 12.5573 4.78915C11.7136 4.77491 11.0181 5.44732 11.0039 6.29102Z" fill="black"/>
<path d="M10.9003 12.4019C10.8861 13.2456 11.5585 13.9411 12.4022 13.9553C13.2459 13.9695 13.9414 13.2971 13.9557 12.4534C13.9699 11.6097 13.2975 10.9142 12.4538 10.9C11.6101 10.8857 10.9146 11.5582 10.9003 12.4019Z" fill="black"/>
<path d="M10.7968 18.5122C10.7826 19.3559 11.455 20.0514 12.2987 20.0657C13.1424 20.0799 13.8379 19.4075 13.8521 18.5638C13.8664 17.7201 13.194 17.0246 12.3503 17.0103C11.5066 16.9961 10.8111 17.6685 10.7968 18.5122Z" fill="black"/>
</svg>
