<svg width="22" height="33" viewBox="0 0 22 33" fill="none" xmlns="http://www.w3.org/2000/svg">
<rect x="0.5" y="8.24072" width="21" height="20.1852" fill="white" stroke="black"/>
<path d="M1.63132 5.29639C1.63132 5.29639 1.92189 5.29639 2.4366 5.29685C2.95132 5.29685 3.68604 5.29685 4.56189 5.29685C5.00604 5.29685 5.47925 5.29685 5.98981 5.29685C6.49208 5.29685 7.01925 5.29685 7.57132 5.29685C8.1234 5.29685 8.69208 5.29685 9.26491 5.29685C9.84604 5.29685 10.4355 5.29685 11.0249 5.29685C11.6102 5.29685 12.1955 5.29685 12.7766 5.29685C13.3536 5.29685 13.9181 5.29685 14.4702 5.29685C15.0223 5.29685 15.5536 5.29685 16.0558 5.29685C16.5623 5.29685 17.0396 5.29685 17.4755 5.29685C18.3596 5.29685 19.0943 5.29685 19.6049 5.29639C20.1196 5.29685 20.4143 5.29639 20.4143 5.29639C20.4143 5.29639 20.5057 5.44792 20.6551 5.6773C20.6966 5.73476 20.7381 5.79686 20.7796 5.8622C20.817 5.92847 20.8709 5.99751 20.9125 6.06934C20.954 6.14117 21.0079 6.21439 21.0536 6.29038C21.1075 6.36545 21.1574 6.44192 21.2072 6.51838C21.257 6.59391 21.3068 6.67084 21.3525 6.74591C21.4023 6.82144 21.4521 6.89512 21.4977 6.96695C21.5434 7.03831 21.5849 7.10736 21.6306 7.17363C21.6721 7.23897 21.7136 7.30106 21.7426 7.35852C21.8962 7.58791 22 7.74083 22 7.74083C22 7.74083 21.6513 7.7399 21.0494 7.7399C20.4475 7.7399 19.5925 7.74083 18.5547 7.73944C18.0442 7.74083 17.4879 7.74083 16.8943 7.74083C16.3049 7.74083 15.6823 7.74083 15.0306 7.7399C14.3913 7.74083 13.7272 7.74083 13.0464 7.7399C12.374 7.74083 11.6849 7.74083 11 7.74083C10.3109 7.74083 9.62189 7.7399 8.94113 7.73944C8.26868 7.74083 7.60453 7.74083 6.95698 7.74083C6.30943 7.74083 5.69094 7.74083 5.10151 7.7399C4.50792 7.74083 3.94755 7.7399 3.43698 7.7399C2.4034 7.7399 1.54415 7.7399 0.942264 7.74083C0.340377 7.74083 0 7.74083 0 7.74083C0 7.74083 0.0996226 7.58791 0.253208 7.35852C0.290566 7.30106 0.332075 7.23897 0.377736 7.17363C0.419245 7.10736 0.469057 7.03831 0.514717 6.96695C0.564528 6.89512 0.61434 6.82144 0.664151 6.74591C0.713962 6.67084 0.763774 6.59391 0.813585 6.51838C0.867547 6.44192 0.917358 6.36545 0.96717 6.29038C1.01698 6.21485 1.06679 6.14117 1.1166 6.06934C1.16226 5.99751 1.20792 5.92847 1.25358 5.8622C1.29925 5.79686 1.34075 5.73476 1.37811 5.6773C1.5317 5.44838 1.63132 5.29639 1.63132 5.29639Z" fill="black"/>
<path d="M13.8839 3.87037C13.8839 5.84112 12.4633 7.36574 10.796 7.36574C9.12867 7.36574 7.70801 5.84112 7.70801 3.87037C7.70801 1.89962 9.12867 0.375 10.796 0.375C12.4633 0.375 13.8839 1.89962 13.8839 3.87037Z" stroke="black" stroke-width="0.75"/>
<path d="M14.1484 17.3579C14.1484 18.5005 14.0459 19.438 13.8408 20.1704C13.6357 20.8931 13.377 21.4644 13.0645 21.8843C12.752 22.2944 12.4102 22.5776 12.0391 22.7339C11.668 22.8901 11.3213 22.9683 10.999 22.9683C10.6768 22.9683 10.3252 22.8755 9.94434 22.6899C9.57324 22.5044 9.22656 22.1968 8.9043 21.7671C8.58203 21.3374 8.30859 20.771 8.08398 20.0679C7.86914 19.3647 7.76172 18.4907 7.76172 17.4458C7.76172 17.1235 7.78613 16.772 7.83496 16.3911C7.89355 16.0103 7.98145 15.6343 8.09863 15.2632C8.21582 14.8823 8.35742 14.5161 8.52344 14.1646C8.69922 13.813 8.9043 13.5054 9.13867 13.2417C9.37305 12.9683 9.63672 12.7534 9.92969 12.5972C10.2324 12.4312 10.5693 12.3481 10.9404 12.3481C11.3994 12.3481 11.8242 12.4995 12.2148 12.8022C12.6055 13.0952 12.9424 13.481 13.2256 13.9595C13.5186 14.4282 13.7432 14.9653 13.8994 15.5708C14.0654 16.1665 14.1484 16.7622 14.1484 17.3579ZM12.8008 17.3433C12.8008 16.7769 12.7666 16.2251 12.6982 15.688C12.6396 15.1411 12.5371 14.6528 12.3906 14.2231C12.2441 13.7935 12.0537 13.4468 11.8193 13.1831C11.585 12.9194 11.3018 12.7876 10.9697 12.7876C10.5889 12.7876 10.2764 12.9243 10.0322 13.1978C9.79785 13.4614 9.6123 13.8179 9.47559 14.2671C9.34863 14.7065 9.26074 15.2095 9.21191 15.7759C9.17285 16.3423 9.15332 16.9233 9.15332 17.519C9.15332 18.0854 9.17285 18.6665 9.21191 19.2622C9.26074 19.8579 9.35352 20.3999 9.49023 20.8882C9.63672 21.3667 9.83203 21.7622 10.0762 22.0747C10.3301 22.3872 10.6621 22.5435 11.0723 22.5435C11.4629 22.5435 11.7705 22.4312 11.9951 22.2065C12.2295 21.9917 12.4053 21.6694 12.5225 21.2397C12.6396 20.8101 12.7129 20.2729 12.7422 19.6284C12.7812 18.9741 12.8008 18.2124 12.8008 17.3433Z" fill="black"/>
</svg>
